<svg width="57" height="58" viewBox="0 0 57 58" fill="none" xmlns="http://www.w3.org/2000/svg">
<g filter="url(#filter0_d)">
<circle cx="28.5" cy="25.2086" r="18.5" fill="url(#paint0_linear)"/>
<circle cx="28.5" cy="25.2086" r="17.5" stroke="white" stroke-width="2"/>
</g>
<path d="M25.3052 33.4397L18.8302 26.6173C18.4412 26.2075 18.4412 25.5429 18.8302 25.133L20.2389 23.6486C20.628 23.2387 21.2587 23.2387 21.6477 23.6486L26.0096 28.2444L35.3523 18.4007C35.7413 17.9908 36.372 17.9908 36.761 18.4007L38.1698 19.885C38.5588 20.2949 38.5588 20.9595 38.1698 21.3694L26.714 33.4397C26.3249 33.8496 25.6942 33.8496 25.3052 33.4397Z" fill="white"/>
<defs>
<filter id="filter0_d" x="0" y="0.708618" width="57" height="57" filterUnits="userSpaceOnUse" color-interpolation-filters="sRGB">
<feFlood flood-opacity="0" result="BackgroundImageFix"/>
<feColorMatrix in="SourceAlpha" type="matrix" values="0 0 0 0 0 0 0 0 0 0 0 0 0 0 0 0 0 0 127 0"/>
<feOffset dy="4"/>
<feGaussianBlur stdDeviation="5"/>
<feColorMatrix type="matrix" values="0 0 0 0 0 0 0 0 0 0 0 0 0 0 0 0 0 0 0.1 0"/>
<feBlend mode="normal" in2="BackgroundImageFix" result="effect1_dropShadow"/>
<feBlend mode="normal" in="SourceGraphic" in2="effect1_dropShadow" result="shape"/>
</filter>
<linearGradient id="paint0_linear" x1="28.5" y1="6.70862" x2="28.5" y2="43.7086" gradientUnits="userSpaceOnUse">
<stop stop-color="#74EBD5"/>
<stop offset="1" stop-color="#ACB6E5"/>
</linearGradient>
</defs>
</svg>
