<svg width="30" height="29" viewBox="0 0 30 29" fill="none" xmlns="http://www.w3.org/2000/svg">
<path d="M27.8571 11.3929H18.2143V2.07143C18.2143 0.927612 17.2547 0 16.0714 0H13.9286C12.7453 0 11.7857 0.927612 11.7857 2.07143V11.3929H2.14286C0.959598 11.3929 0 12.3205 0 13.4643V15.5357C0 16.6795 0.959598 17.6071 2.14286 17.6071H11.7857V26.9286C11.7857 28.0724 12.7453 29 13.9286 29H16.0714C17.2547 29 18.2143 28.0724 18.2143 26.9286V17.6071H27.8571C29.0404 17.6071 30 16.6795 30 15.5357V13.4643C30 12.3205 29.0404 11.3929 27.8571 11.3929Z" fill="white"/>
</svg>
